<svg width="46" height="13" viewBox="0 0 46 13" fill="none" xmlns="http://www.w3.org/2000/svg">
<path d="M0.552 0.799999H2.536L6.36 6.032L10.008 0.799999H11.864V12H9.912V3.904L6.376 8.88H6.088L2.52 3.952V12H0.552V0.799999ZM14.1419 6.4C14.1419 5.58933 14.2805 4.832 14.5579 4.128C14.8459 3.424 15.2459 2.816 15.7579 2.304C16.2699 1.78133 16.8832 1.37067 17.5979 1.072C18.3125 0.773333 19.1019 0.624 19.9659 0.624C20.7979 0.624 21.5712 0.762666 22.2859 1.04C23.0005 1.31733 23.6139 1.70667 24.1259 2.208C24.6485 2.70933 25.0592 3.31733 25.3579 4.032C25.6565 4.736 25.8059 5.52533 25.8059 6.4C25.8059 7.24267 25.6565 8.016 25.3579 8.72C25.0592 9.424 24.6485 10.032 24.1259 10.544C23.6139 11.056 23.0005 11.456 22.2859 11.744C21.5712 12.032 20.7979 12.176 19.9659 12.176C19.1339 12.176 18.3605 12.0427 17.6459 11.776C16.9419 11.4987 16.3285 11.1093 15.8059 10.608C15.2832 10.096 14.8725 9.488 14.5739 8.784C14.2859 8.06933 14.1419 7.27467 14.1419 6.4ZM16.2219 6.4C16.2219 6.96533 16.3179 7.488 16.5099 7.968C16.7019 8.448 16.9632 8.864 17.2939 9.216C17.6352 9.568 18.0352 9.84533 18.4939 10.048C18.9525 10.24 19.4432 10.336 19.9659 10.336C20.5525 10.336 21.0752 10.2347 21.5339 10.032C22.0032 9.82933 22.3979 9.552 22.7179 9.2C23.0485 8.848 23.2992 8.432 23.4699 7.952C23.6405 7.472 23.7259 6.95467 23.7259 6.4C23.7259 5.824 23.6299 5.296 23.4379 4.816C23.2459 4.32533 22.9792 3.90933 22.6379 3.568C22.2965 3.216 21.8965 2.944 21.4379 2.752C20.9792 2.56 20.4885 2.464 19.9659 2.464C19.4325 2.464 18.9365 2.56 18.4779 2.752C18.0192 2.944 17.6192 3.216 17.2779 3.568C16.9472 3.90933 16.6859 4.32533 16.4939 4.816C16.3125 5.296 16.2219 5.824 16.2219 6.4ZM28.0833 12V0.799999C28.2433 0.799999 28.4939 0.799999 28.8353 0.799999C29.1766 0.789333 29.5286 0.783999 29.8913 0.783999C30.2646 0.783999 30.6006 0.783999 30.8993 0.783999C31.2086 0.773333 31.4059 0.768 31.4913 0.768C32.2593 0.768 32.8993 0.858666 33.4113 1.04C33.9339 1.21067 34.3499 1.456 34.6593 1.776C34.9793 2.08533 35.2086 2.45333 35.3472 2.88C35.4859 3.296 35.5553 3.744 35.5553 4.224C35.5553 4.704 35.4859 5.12533 35.3472 5.488C35.2086 5.85067 35.0326 6.16533 34.8193 6.432C34.6059 6.688 34.3713 6.90133 34.1153 7.072C33.8699 7.232 33.6299 7.34933 33.3953 7.424L36.8993 12H34.5153L31.4273 7.808H30.0513V12H28.0833ZM31.3953 2.608C31.2139 2.608 31.0113 2.61333 30.7873 2.624C30.5633 2.624 30.3179 2.62933 30.0513 2.64V5.968H31.3313C31.6193 5.968 31.8913 5.936 32.1473 5.872C32.4033 5.79733 32.6273 5.69067 32.8193 5.552C33.0219 5.40267 33.1819 5.22133 33.2993 5.008C33.4166 4.784 33.4753 4.528 33.4753 4.24C33.4753 4.016 33.4379 3.808 33.3633 3.616C33.2993 3.41333 33.1873 3.23733 33.0273 3.088C32.8673 2.93867 32.6539 2.82133 32.3873 2.736C32.1206 2.65067 31.7899 2.608 31.3953 2.608ZM38.6145 0.799999H45.0945V2.64H40.5825V5.424H44.6145V7.264H40.5825V10.16H45.2545V12H38.6145V0.799999Z" fill="#201E33"/>
</svg>
