<svg width="44" height="13" viewBox="0 0 44 13" fill="none" xmlns="http://www.w3.org/2000/svg">
<path d="M0.776 12H0.552V0.799999H0.76C1.22933 0.799999 1.72533 0.794666 2.248 0.783999C3.29333 0.762666 3.82667 0.752 3.848 0.752C6.024 0.752 7.63467 1.30667 8.68 2.416C9.65067 3.45067 10.136 4.74133 10.136 6.288C10.136 7.952 9.576 9.328 8.456 10.416C7.34667 11.4933 5.768 12.032 3.72 12.032C3.29333 12.032 2.84533 12.0267 2.376 12.016C1.91733 12.0053 1.384 12 0.776 12ZM3.816 2.592C3.4 2.592 2.968 2.608 2.52 2.64V10.16C3.01067 10.1813 3.432 10.192 3.784 10.192C5.11733 10.192 6.16267 9.84 6.92 9.136C7.67733 8.432 8.056 7.48267 8.056 6.288C8.056 5.14667 7.67733 4.24533 6.92 3.584C6.17333 2.92267 5.13867 2.592 3.816 2.592ZM14.3794 7.808V12H12.4114V0.799999C12.966 0.799999 13.5687 0.794666 14.2194 0.783999C14.87 0.773333 15.4034 0.768 15.8194 0.768C18.5287 0.768 19.8834 1.92 19.8834 4.224C19.8834 5.07733 19.6647 5.78133 19.2274 6.336C18.79 6.86933 18.2887 7.232 17.7234 7.424L21.2274 12H18.8434L15.7554 7.808H14.3794ZM15.7234 2.608C15.67 2.608 15.5847 2.61333 15.4674 2.624C15.35 2.624 15.1847 2.62933 14.9714 2.64C14.758 2.64 14.5607 2.64 14.3794 2.64V5.968H15.6594C16.2887 5.968 16.8007 5.81333 17.1954 5.504C17.6007 5.19467 17.8034 4.77333 17.8034 4.24C17.8034 3.152 17.11 2.608 15.7234 2.608ZM23.3929 12H21.4089L26.1449 0.768H27.8729L32.6089 12H30.5129L29.3449 9.136H24.5609L23.3929 12ZM28.5929 7.296L26.9609 3.312L25.3129 7.296H28.5929ZM41.2558 7.808H38.5518V5.968H43.0958V10.608C42.6158 11.088 41.9758 11.472 41.1758 11.76C40.3758 12.0373 39.6184 12.176 38.9038 12.176C37.0904 12.176 35.6611 11.6533 34.6158 10.608C33.5811 9.57333 33.0638 8.17067 33.0638 6.4C33.0638 4.75733 33.5758 3.38667 34.5998 2.288C35.6238 1.17867 36.9731 0.624 38.6478 0.624C40.0771 0.624 41.2771 1.00267 42.2478 1.76L41.4158 3.328C41.1384 3.06133 40.7704 2.85333 40.3118 2.704C39.8531 2.544 39.3784 2.464 38.8878 2.464C37.7678 2.464 36.8664 2.816 36.1838 3.52C35.4904 4.21333 35.1438 5.17333 35.1438 6.4C35.1438 7.584 35.4904 8.53867 36.1838 9.264C36.8664 9.97867 37.7838 10.336 38.9358 10.336C39.3411 10.336 39.7784 10.2613 40.2478 10.112C40.7171 9.952 41.0531 9.77067 41.2558 9.568V7.808Z" fill="#201E33"/>
</svg>
