<svg width="62" height="33" viewBox="0 0 62 33" fill="none" xmlns="http://www.w3.org/2000/svg">
<path d="M8.62891 10.96C8.17291 11.986 7.69158 12.7523 7.18491 13.259C6.67824 13.753 6.05758 14 5.32291 14C5.03158 14 4.73391 13.9557 4.42991 13.867C4.12591 13.7783 3.88524 13.6643 3.70791 13.525L4.27791 12.157C4.45524 12.2837 4.61991 12.3723 4.77191 12.423C4.93658 12.4737 5.11391 12.499 5.30391 12.499C5.68391 12.499 6.00691 12.3723 6.27291 12.119C6.53891 11.853 6.76058 11.53 6.93791 11.15L7.16591 10.656L1.14291 0.699999H2.96691L7.94491 9.041L11.5929 0.699999H13.2269L8.62891 10.96ZM16.1526 14.19C15.8359 14.19 15.5003 14.1583 15.1456 14.095C14.7909 14.0443 14.4489 13.9683 14.1196 13.867C13.8029 13.7657 13.5053 13.6453 13.2266 13.506C12.9606 13.3667 12.7579 13.2083 12.6186 13.031L13.3976 11.891C13.7649 12.1823 14.1829 12.4103 14.6516 12.575C15.1329 12.7397 15.5573 12.822 15.9246 12.822C16.5706 12.822 17.1026 12.6953 17.5206 12.442C17.9513 12.1887 18.1666 11.8467 18.1666 11.416C18.1666 11.0613 18.0209 10.789 17.7296 10.599C17.4383 10.409 17.0266 10.314 16.4946 10.314H15.0506V9.079H16.3996C16.8303 9.079 17.1849 8.965 17.4636 8.737C17.7423 8.49633 17.8816 8.205 17.8816 7.863C17.8816 7.47033 17.7169 7.16633 17.3876 6.951C17.0583 6.73567 16.6149 6.628 16.0576 6.628C15.4623 6.628 14.9556 6.72933 14.5376 6.932C14.1323 7.13467 13.7839 7.35 13.4926 7.578L12.9036 6.4C13.2583 6.03267 13.7396 5.754 14.3476 5.564C14.9556 5.36133 15.6016 5.26 16.2856 5.26C17.3369 5.26 18.1349 5.469 18.6796 5.887C19.2243 6.29233 19.4966 6.84967 19.4966 7.559C19.4966 7.977 19.3826 8.36967 19.1546 8.737C18.9266 9.10433 18.5403 9.383 17.9956 9.573V9.611C18.6036 9.67433 19.0533 9.90233 19.3446 10.295C19.6359 10.6877 19.7816 11.131 19.7816 11.625C19.7816 12.0303 19.6929 12.3913 19.5156 12.708C19.3383 13.0247 19.0849 13.2907 18.7556 13.506C18.4389 13.7213 18.0589 13.886 17.6156 14C17.1723 14.1267 16.6846 14.19 16.1526 14.19ZM28.368 10.39H23.618V14H22.098V5.45H23.618V8.965H28.368V5.45H29.888V14H28.368V10.39ZM32.694 6.039C33.074 5.79833 33.511 5.60833 34.005 5.469C34.499 5.32967 35.012 5.26 35.544 5.26C36.76 5.26 37.6087 5.564 38.09 6.172C38.584 6.78 38.831 7.64133 38.831 8.756V14H37.387V12.898C37.1337 13.2273 36.7917 13.5187 36.361 13.772C35.9304 14.0127 35.3604 14.133 34.651 14.133C33.8657 14.133 33.2324 13.905 32.751 13.449C32.2697 12.9803 32.029 12.328 32.029 11.492C32.029 11.0613 32.1114 10.675 32.276 10.333C32.4407 9.991 32.6624 9.706 32.941 9.478C33.2324 9.25 33.5744 9.079 33.967 8.965C34.3724 8.83833 34.803 8.775 35.259 8.775C35.5884 8.775 35.9494 8.813 36.342 8.889C36.7474 8.965 37.0957 9.11067 37.387 9.326C37.387 8.93333 37.3617 8.57233 37.311 8.243C37.273 7.901 37.1844 7.616 37.045 7.388C36.9184 7.14733 36.722 6.96367 36.456 6.837C36.2027 6.69767 35.867 6.628 35.449 6.628C34.917 6.628 34.4737 6.69133 34.119 6.818C33.777 6.932 33.435 7.07767 33.093 7.255L32.694 6.039ZM35.183 12.765C35.7404 12.765 36.19 12.6447 36.532 12.404C36.8867 12.1633 37.1717 11.9163 37.387 11.663V10.58C36.855 10.2 36.2154 10.01 35.468 10.01C35.24 10.01 35.012 10.0417 34.784 10.105C34.5687 10.1557 34.3724 10.238 34.195 10.352C34.0304 10.466 33.8974 10.6117 33.796 10.789C33.6947 10.9663 33.644 11.1753 33.644 11.416C33.644 11.8213 33.777 12.1507 34.043 12.404C34.309 12.6447 34.689 12.765 35.183 12.765ZM40.2933 5.45H48.0833V6.97H44.9483V14H43.4283V6.97H40.2933V5.45ZM49.7445 5.45H51.2645V8.015H52.8225C53.4811 8.015 54.0258 8.09733 54.4565 8.262C54.8871 8.42667 55.2291 8.64833 55.4825 8.927C55.7485 9.193 55.9321 9.50333 56.0335 9.858C56.1475 10.2127 56.2045 10.58 56.2045 10.96C56.2045 11.34 56.1411 11.7137 56.0145 12.081C55.9005 12.4357 55.7041 12.7587 55.4255 13.05C55.1468 13.3287 54.7795 13.5567 54.3235 13.734C53.8675 13.9113 53.3038 14 52.6325 14H49.7445V5.45ZM51.2645 9.44V12.575H52.5185C53.2785 12.575 53.8105 12.442 54.1145 12.176C54.4311 11.91 54.5895 11.5237 54.5895 11.017C54.5895 10.4977 54.4311 10.105 54.1145 9.839C53.7978 9.573 53.2721 9.44 52.5375 9.44H51.2645ZM8.31897 19.707C8.05297 20.0617 7.76164 20.3087 7.44497 20.448C7.14097 20.5873 6.80531 20.695 6.43797 20.771C6.08331 20.847 5.69697 20.923 5.27897 20.999C4.87364 21.0623 4.43664 21.2017 3.96797 21.417C3.56264 21.5943 3.22697 21.835 2.96097 22.139C2.70764 22.443 2.49864 22.785 2.33397 23.165C2.16931 23.5323 2.04264 23.925 1.95397 24.343C1.87797 24.7483 1.82731 25.1473 1.80197 25.54H1.83997C1.97931 25.236 2.16297 24.9637 2.39097 24.723C2.63164 24.4823 2.89764 24.2733 3.18897 24.096C3.49297 23.9187 3.81597 23.7857 4.15797 23.697C4.49997 23.5957 4.85464 23.545 5.22197 23.545C5.82997 23.545 6.38097 23.6463 6.87497 23.849C7.36897 24.0517 7.78697 24.343 8.12897 24.723C8.47097 25.0903 8.73064 25.5337 8.90797 26.053C9.09797 26.5723 9.19297 27.155 9.19297 27.801C9.19297 28.3963 9.08531 28.96 8.86997 29.492C8.65464 30.024 8.35064 30.4927 7.95797 30.898C7.57797 31.2907 7.11564 31.6073 6.57097 31.848C6.03897 32.076 5.44997 32.19 4.80397 32.19C4.10731 32.19 3.48031 32.0697 2.92297 31.829C2.36564 31.5757 1.89064 31.221 1.49797 30.765C1.10531 30.309 0.801306 29.7517 0.585973 29.093C0.383306 28.4343 0.281973 27.6933 0.281973 26.87C0.281973 26.2367 0.319973 25.578 0.395973 24.894C0.471973 24.1973 0.623973 23.5323 0.851973 22.899C1.07997 22.2657 1.39664 21.6957 1.80197 21.189C2.21997 20.6697 2.77097 20.2643 3.45497 19.973C3.94897 19.7577 4.39864 19.6183 4.80397 19.555C5.20931 19.479 5.57031 19.4157 5.88697 19.365C6.21631 19.3017 6.51397 19.2193 6.77997 19.118C7.04597 19.004 7.28664 18.8013 7.50197 18.51L8.31897 19.707ZM1.89697 27.155C1.89697 27.7123 1.96664 28.2127 2.10597 28.656C2.24531 29.0993 2.44164 29.4793 2.69497 29.796C2.94831 30.1 3.25231 30.3407 3.60697 30.518C3.96164 30.6827 4.34797 30.765 4.76597 30.765C5.18397 30.765 5.56397 30.689 5.90597 30.537C6.24797 30.385 6.53931 30.1823 6.77997 29.929C7.03331 29.663 7.22964 29.359 7.36897 29.017C7.50831 28.6623 7.57797 28.2823 7.57797 27.877C7.57797 27.041 7.34364 26.3507 6.87497 25.806C6.40631 25.2487 5.72864 24.97 4.84197 24.97C4.43664 24.97 4.06931 25.0333 3.73997 25.16C3.41064 25.2867 3.11931 25.4513 2.86597 25.654C2.61264 25.8567 2.40364 26.091 2.23897 26.357C2.07431 26.6103 1.96031 26.8763 1.89697 27.155ZM10.8034 27.725C10.8034 27.079 10.911 26.4837 11.1264 25.939C11.3417 25.3943 11.6457 24.9257 12.0384 24.533C12.4437 24.1277 12.925 23.8173 13.4824 23.602C14.0524 23.374 14.6794 23.26 15.3634 23.26C16.0474 23.26 16.668 23.374 17.2254 23.602C17.7827 23.8173 18.2577 24.1277 18.6504 24.533C19.0557 24.9257 19.366 25.3943 19.5814 25.939C19.8094 26.4837 19.9234 27.079 19.9234 27.725C19.9234 28.371 19.8094 28.9663 19.5814 29.511C19.366 30.0557 19.0557 30.5307 18.6504 30.936C18.2577 31.3287 17.7827 31.639 17.2254 31.867C16.668 32.0823 16.0474 32.19 15.3634 32.19C14.6794 32.19 14.0524 32.0823 13.4824 31.867C12.925 31.639 12.4437 31.3287 12.0384 30.936C11.6457 30.5307 11.3417 30.0557 11.1264 29.511C10.911 28.9663 10.8034 28.371 10.8034 27.725ZM12.4184 27.725C12.4184 28.1683 12.488 28.58 12.6274 28.96C12.7794 29.3273 12.982 29.644 13.2354 29.91C13.5014 30.176 13.8117 30.385 14.1664 30.537C14.5337 30.689 14.9327 30.765 15.3634 30.765C15.794 30.765 16.1867 30.6953 16.5414 30.556C16.9087 30.404 17.219 30.195 17.4724 29.929C17.7384 29.663 17.941 29.3463 18.0804 28.979C18.2324 28.599 18.3084 28.181 18.3084 27.725C18.3084 27.2817 18.2324 26.8763 18.0804 26.509C17.941 26.129 17.7384 25.806 17.4724 25.54C17.219 25.274 16.9087 25.065 16.5414 24.913C16.1867 24.761 15.794 24.685 15.3634 24.685C14.9454 24.685 14.5527 24.761 14.1854 24.913C13.8307 25.0523 13.5204 25.255 13.2544 25.521C13.001 25.787 12.7984 26.11 12.6464 26.49C12.4944 26.8573 12.4184 27.269 12.4184 27.725ZM27.6346 24.97H24.6326L24.5376 26.414C24.4362 27.63 24.2842 28.6117 24.0816 29.359C23.8789 30.1063 23.6319 30.6827 23.3406 31.088C23.0492 31.4933 22.7136 31.7657 22.3336 31.905C21.9536 32.0443 21.5419 32.114 21.0986 32.114L20.9846 30.632C21.1492 30.6447 21.3392 30.6067 21.5546 30.518C21.7699 30.4167 21.9789 30.2077 22.1816 29.891C22.3842 29.5617 22.5679 29.0993 22.7326 28.504C22.8972 27.896 23.0049 27.098 23.0556 26.11L23.2076 23.45H29.1546V32H27.6346V24.97ZM31.8949 23.45H33.4149V26.015H34.9729C35.6315 26.015 36.1762 26.0973 36.6069 26.262C37.0375 26.4267 37.3795 26.6483 37.6329 26.927C37.8989 27.193 38.0825 27.5033 38.1839 27.858C38.2979 28.2127 38.3549 28.58 38.3549 28.96C38.3549 29.34 38.2915 29.7137 38.1649 30.081C38.0509 30.4357 37.8545 30.7587 37.5759 31.05C37.2972 31.3287 36.9299 31.5567 36.4739 31.734C36.0179 31.9113 35.4542 32 34.7829 32H31.8949V23.45ZM33.4149 27.44V30.575H34.6689C35.4289 30.575 35.9609 30.442 36.2649 30.176C36.5815 29.91 36.7399 29.5237 36.7399 29.017C36.7399 28.4977 36.5815 28.105 36.2649 27.839C35.9482 27.573 35.4225 27.44 34.6879 27.44H33.4149ZM40.3929 23.45H41.9129V30.575H45.0479V23.45H46.5679V30.575H49.7029V23.45H51.2229V32H40.3929V23.45ZM61.1949 31.069C60.7769 31.449 60.2766 31.734 59.6939 31.924C59.1239 32.1013 58.5539 32.19 57.9839 32.19C57.2873 32.19 56.6539 32.0887 56.0839 31.886C55.5266 31.6707 55.0453 31.3667 54.6399 30.974C54.2473 30.5813 53.9433 30.1127 53.7279 29.568C53.5126 29.0107 53.4049 28.3963 53.4049 27.725C53.4049 27.1043 53.4999 26.5217 53.6899 25.977C53.8926 25.4323 54.1776 24.9637 54.5449 24.571C54.9249 24.1657 55.3873 23.849 55.9319 23.621C56.4766 23.3803 57.1036 23.26 57.8129 23.26C58.3576 23.26 58.8706 23.355 59.3519 23.545C59.8459 23.735 60.2703 24.001 60.6249 24.343C60.9796 24.685 61.2583 25.0967 61.4609 25.578C61.6763 26.0593 61.7839 26.5913 61.7839 27.174C61.7839 27.5667 61.7523 27.9087 61.6889 28.2H55.1149C55.1783 29.0107 55.4823 29.644 56.0269 30.1C56.5716 30.5433 57.2619 30.765 58.0979 30.765C58.6553 30.765 59.1619 30.6827 59.6179 30.518C60.0739 30.3407 60.4413 30.1253 60.7199 29.872L61.1949 31.069ZM57.7369 24.685C56.9516 24.685 56.3246 24.9003 55.8559 25.331C55.3873 25.7617 55.1086 26.3063 55.0199 26.965H60.2069C60.1689 26.2557 59.9346 25.6983 59.5039 25.293C59.0733 24.8877 58.4843 24.685 57.7369 24.685Z" fill="#201E33"/>
</svg>
